PathFileType	4	(X/Y/Z)	SUBJ24_2_walk_RCNL2025.trc
DataRate	CameraRate	NumFrames	NumMarkers	Units	OrigDataRate	OrigDataStartFrame	OrigNumFrames
100	100	12	25	mm	100	50	399
Frame#	Time	R_Shoulder			L_Shoulder			C7			J_Notch			R_Elbow			L_Elbow			R_Wrist			L_Wrist			R_Asis			L_Asis			Sacral			Thoracic			Sternum			R_Thigh_Lateral			R_Knee_Lateral			R_Shank_Lateral			R_Ankle_Lateral			R_Heel			R_Toe			L_Thigh_Lateral			L_Knee_Lateral			L_Shank_Lateral			L_Ankle_Lateral			L_Heel			L_Toe		
		X1	Y1	Z1	X2	Y2	Z2	X3	Y3	Z3	X4	Y4	Z4	X5	Y5	Z5	X6	Y6	Z6	X7	Y7	Z7	X8	Y8	Z8	X9	Y9	Z9	X10	Y10	Z10	X11	Y11	Z11	X12	Y12	Z12	X13	Y13	Z13	X14	Y14	Z14	X15	Y15	Z15	X16	Y16	Z16	X17	Y17	Z17	X18	Y18	Z18	X19	Y19	Z19	X20	Y20	Z20	X21	Y21	Z21	X22	Y22	Z22	X23	Y23	Z23	X24	Y24	Z24	X25	Y25	Z25
50	0.49000000	-2845.529541	1277.227051	312.537964	-2880.658936	1279.316650	-31.784492	-2946.257812	1342.271729	147.879654	-2812.240723	1251.718994	137.414459	-2813.400879	1000.631531	414.267731	-2981.203857	996.418579	-97.184822	-2639.378662	841.965515	379.425568	-2995.426270	762.201263	-82.920061	-2836.136230	838.257996	314.299835	-2824.462891	842.184509	-10.910685	-3005.275879	879.975891	154.994415	-3012.679688	1076.085083	152.840744	-2728.465332	1038.872803	131.506714	-2980.454834	547.303650	343.651337	-2956.619873	401.618347	271.180573	-3055.823975	291.303375	318.025177	-3218.095215	120.201942	245.871857	-3267.727051	130.384644	187.924896	-3132.978760	25.086815	231.987976	-2767.139648	540.408997	-23.694365	-2701.633789	430.199829	36.920849	-2688.336914	274.902252	-10.413747	-2667.178955	51.204773	60.816433	-2710.776367	25.289518	118.874596	-2545.592041	37.294460	87.616203
51	0.50000000	-2831.482666	1279.140381	310.690369	-2867.580322	1280.608032	-33.221634	-2933.215332	1343.840088	146.469620	-2799.133545	1253.390625	135.602859	-2802.906494	1001.835693	412.705170	-2964.758545	996.672729	-98.643280	-2631.551147	840.303528	378.525467	-2976.912354	762.465820	-84.459021	-2822.189697	838.303528	312.267090	-2812.263916	844.870361	-12.809191	-2992.132324	881.312988	154.710358	-2999.458740	1077.568970	152.309174	-2719.239258	1039.191772	130.961639	-2963.467773	546.008667	342.840515	-2937.067871	400.820251	272.287842	-3039.990479	294.358765	318.921021	-3207.025146	128.009323	246.673218	-3254.144531	141.769577	187.887619	-3127.947021	27.334999	232.564911	-2755.133301	542.450806	-25.596436	-2690.602539	431.360565	35.521915	-2680.804443	275.319366	-11.297968	-2666.166260	51.209961	60.893112	-2710.492432	25.765520	118.812843	-2544.994873	36.152580	87.717613
52	0.51000000	-2817.691406	1281.290405	308.920959	-2854.715820	1282.245117	-34.539940	-2920.378418	1345.583862	145.191467	-2786.211426	1255.273804	133.922638	-2792.437988	1003.313232	411.152252	-2948.109375	997.187744	-100.097626	-2624.267578	838.471466	377.607071	-2957.574585	762.984894	-86.111391	-2808.471436	838.601746	310.169983	-2800.262695	847.559509	-14.778888	-2979.184570	882.847534	154.270432	-2986.357178	1079.224731	151.807175	-2708.759277	1040.160034	129.970413	-2945.839844	544.633606	342.162170	-2916.565186	400.202667	273.467102	-3023.058594	297.777161	319.783661	-3194.332031	136.076675	247.209564	-3238.493164	153.330322	187.453537	-3121.513184	30.401989	233.304565	-2744.527344	544.185608	-27.502768	-2681.161133	432.065125	34.025425	-2674.674561	275.451813	-12.109482	-2665.403320	51.224873	61.014603	-2710.293945	26.108984	118.808174	-2544.609863	35.487339	87.759483
53	0.52000000	-2804.235596	1283.602661	307.283813	-2842.061279	1284.164429	-35.731720	-2907.748047	1347.465820	144.036804	-2773.481445	1257.323120	132.397903	-2782.004150	1004.993835	409.627380	-2931.326172	997.942322	-101.563141	-2617.482178	836.477295	376.678787	-2937.470703	763.746643	-87.854612	-2795.025146	839.154297	308.067871	-2788.375732	850.160400	-16.774160	-2966.459229	884.577759	153.613068	-2973.375732	1081.008545	151.287674	-2696.066650	1042.008301	128.269882	-2927.647217	543.264038	341.636627	-2895.244629	399.836761	274.679962	-3005.071289	301.522064	320.608063	-3180.004395	144.269440	247.478775	-3220.947021	164.810806	186.703171	-3113.518555	34.195110	234.177750	-2735.327637	545.563904	-29.301067	-2673.288818	432.386353	32.479458	-2669.752686	275.362823	-12.836797	-2664.845215	51.231701	61.160179	-2710.162842	26.332293	118.846619	-2544.382080	35.144272	87.761017
54	0.53000000	-2791.162598	1286.004883	305.832062	-2829.589600	1286.296631	-36.794800	-2895.307129	1349.460571	142.993057	-2760.938965	1259.501831	131.046860	-2771.628418	1006.801880	408.144775	-2914.460449	998.911316	-103.055687	-2611.148193	834.344574	375.760178	-2916.675903	764.741302	-89.667326	-2781.873535	839.974121	306.021301	-2776.536865	852.618774	-18.744429	-2953.972656	886.498901	152.715546	-2960.530273	1082.894775	150.698013	-2681.021240	1044.727295	125.871552	-2908.993896	542.024902	341.257385	-2873.249023	399.802521	275.877808	-2986.069092	305.526642	321.380493	-3164.067871	152.441132	247.484558	-3201.778564	175.913940	185.721481	-3103.865479	38.514740	235.122086	-2727.275146	546.637451	-30.917723	-2666.764160	432.443420	30.950815	-2665.766113	275.134369	-13.492280	-2664.449707	51.226929	61.306931	-2710.083496	26.458902	118.910370	-2544.270264	35.004032	87.731689
55	0.54000000	-2778.485840	1288.432739	304.608093	-2817.260986	1288.578003	-37.732170	-2883.026367	1351.552002	142.048065	-2748.570801	1261.781128	129.882629	-2761.343994	1008.666565	406.714417	-2897.543945	1000.070312	-104.589325	-2605.222656	832.115845	374.880829	-2895.275879	765.963226	-91.528801	-2769.022949	841.085754	304.084442	-2764.711182	854.914490	-20.645124	-2941.726562	888.598328	151.596024	-2947.853271	1084.875610	149.991394	-2664.277344	1048.080688	123.043518	-2889.995361	541.074707	340.998199	-2850.712402	400.177979	277.013245	-2966.081543	309.691193	322.073853	-3146.582520	160.433594	247.230942	-3181.323486	186.305237	184.571594	-3092.487061	43.119579	236.067169	-2719.987793	547.508301	-32.318806	-2661.243164	432.362915	29.513123	-2662.435303	274.839233	-14.100830	-2664.179443	51.213036	61.435066	-2710.043701	26.517424	118.982971	-2544.242920	34.980972	87.675568
56	0.55000000	-2766.185791	1290.835083	303.634949	-2805.033936	1290.957153	-38.552422	-2870.874756	1353.729370	141.192291	-2736.357666	1264.135620	128.908249	-2751.188721	1010.531311	405.343658	-2880.590576	1001.400269	-106.174728	-2599.669434	829.845490	374.071182	-2873.353027	767.415039	-93.420645	-2756.468262	842.518738	302.299500	-2752.898682	857.052185	-22.442408	-2929.708008	890.854492	150.303879	-2935.377441	1086.951904	149.139526	-2646.918701	1051.716675	120.181221	-2870.755127	540.582886	340.824921	-2827.750000	401.023773	278.048431	-2945.143066	313.895905	322.646759	-3127.636719	168.067413	246.722763	-3159.941162	195.632889	183.292633	-3079.305908	47.772766	236.955475	-2713.110352	548.278198	-33.502865	-2656.361084	432.243866	28.233221	-2659.524414	274.527161	-14.685606	-2664.002197	51.193512	61.530544	-2710.033691	26.536524	119.051842	-2544.276611	35.017967	87.594597
57	0.56000000	-2754.220947	1293.175659	302.911285	-2792.871338	1293.398804	-39.269833	-2858.823486	1355.983276	140.419144	-2724.278076	1266.539185	128.111298	-2741.201904	1012.359070	404.037903	-2863.603271	1002.890564	-107.817955	-2594.460938	827.590729	373.355164	-2850.975952	769.110962	-95.328283	-2744.198242	844.295471	300.694733	-2741.135254	859.051331	-24.110329	-2917.892578	893.238098	148.904251	-2923.119385	1089.123413	148.134811	-2630.084473	1055.281860	117.677902	-2851.349365	540.685974	340.704468	-2804.458740	402.370819	278.958008	-2923.323242	318.025940	323.048004	-3107.328125	175.131180	245.972717	-3137.950195	203.568253	181.914642	-3064.190918	52.261765	237.755966	-2706.388428	549.032776	-34.501160	-2651.832520	432.137390	27.157829	-2656.877197	274.225220	-15.257867	-2663.893555	51.171318	61.585590	-2710.047119	26.540108	119.108185	-2544.354004	35.080025	87.490372
58	0.57000000	-2742.537109	1295.435303	302.410461	-2780.745361	1295.883667	-39.902168	-2846.850098	1358.302246	139.723053	-2712.311279	1268.964233	127.465065	-2731.421143	1014.131775	402.800018	-2846.581543	1004.539124	-109.520401	-2589.576904	825.406677	372.748367	-2828.199951	771.075897	-97.238695	-2732.195312	846.419067	299.283844	-2729.491699	860.937622	-25.624632	-2906.251709	895.715820	147.463608	-2911.074707	1091.383789	146.985870	-2614.713135	1058.494995	115.835075	-2831.825684	541.440063	340.608276	-2780.923340	404.218719	279.725281	-2900.732666	321.987091	323.229584	-3085.735352	181.382416	245.013870	-3115.543213	209.854050	180.473419	-3046.923340	56.407093	238.472458	-2699.677246	549.839172	-35.370564	-2647.512451	432.053101	26.302179	-2654.424805	273.949097	-15.815601	-2663.837402	51.150177	61.597122	-2710.078857	26.544727	119.144890	-2544.461914	35.148136	87.364601
59	0.58000000	-2731.078369	1297.609131	302.084503	-2768.637207	1298.406494	-40.467342	-2834.939697	1360.670410	139.095932	-2700.438232	1271.383789	126.935226	-2721.880615	1015.847046	401.629791	-2829.528564	1006.350891	-111.280624	-2585.001343	823.342377	372.257416	-2805.075684	773.343353	-99.136204	-2720.432129	848.866699	298.067078	-2718.067139	862.742249	-26.964760	-2894.755615	898.252258	146.040909	-2899.225342	1093.720581	145.712021	-2601.379395	1061.184570	114.806755	-2812.211670	542.797668	340.512207	-2757.222656	406.540985	280.335266	-2877.487793	325.693695	323.164825	-3062.906494	186.565735	243.909851	-3092.735107	214.336517	179.016541	-3027.212402	60.065456	239.141022	-2692.926514	550.739197	-36.171089	-2643.395752	431.983368	25.646086	-2652.165283	273.714050	-16.349058	-2663.824219	51.136078	61.564304	-2710.126953	26.558985	119.154655	-2544.591553	35.214191	87.218521
60	0.59000000	-2719.792236	1299.702026	301.872620	-2756.536865	1300.971191	-40.982101	-2823.084229	1363.065674	138.524124	-2688.642822	1273.772583	126.486992	-2712.608154	1017.512268	400.524384	-2812.456055	1008.333374	-113.097099	-2580.719238	821.434479	371.878021	-2781.654907	775.951019	-101.001034	-2708.866455	851.590698	297.033325	-2706.953857	864.500671	-28.129454	-2883.376953	900.811096	144.685028	-2887.547363	1096.113770	144.337982	-2590.169434	1063.318359	114.562630	-2792.529053	544.626099	340.396454	-2733.434814	409.289215	280.770386	-2853.666260	329.044342	322.866180	-3038.877441	190.444641	242.749786	-3069.399414	216.963821	177.598999	-3004.787842	63.120663	239.805664	-2686.164307	551.743408	-36.943455	-2639.557373	431.924438	25.142719	-2650.128418	273.535553	-16.847401	-2663.850586	51.136349	61.486805	-2710.190674	26.583311	119.130020	-2544.735840	35.276970	87.052361
61	0.60000000	-2708.635498	1301.722412	301.711456	-2744.440186	1303.583496	-41.462498	-2811.282227	1365.459351	137.988434	-2676.912598	1276.107910	126.090233	-2703.625732	1019.138916	399.480011	-2795.385498	1010.491272	-114.970642	-2576.715210	819.703522	371.596085	-2757.987305	778.932007	-102.812233	-2697.441162	854.523376	296.162170	-2696.183838	866.241760	-29.146063	-2872.093262	903.355286	143.435623	-2876.015137	1098.535522	142.889465	-2580.614258	1065.018066	114.887512	-2772.803223	546.757629	340.246674	-2709.640381	412.395660	281.013855	-2829.296143	331.914520	322.392670	-3013.703613	192.839188	241.624924	-3045.375488	217.755539	176.275665	-2979.533936	65.466522	240.476562	-2679.479980	552.832642	-37.698788	-2636.074219	431.882446	24.736994	-2648.345459	273.423798	-17.303013	-2663.917480	51.156822	61.364235	-2710.270264	26.612530	119.064674	-2544.888672	35.338482	86.865334
